<svg id="Capa_1" enable-background="new 0 0 512 512" height="512" viewBox="0 0 512 512" width="512" xmlns="http://www.w3.org/2000/svg"><g><g><g><path d="m272.543 103.674-28.44-3.145 17.834-22.297c4.772-5.971 4.281-14.558-1.153-19.94l-33.914-33.629c-5.433-5.382-14.055-5.841-20.029-1.058l-21.904 17.544-3.098-27.828c-.852-7.59-7.288-13.321-14.947-13.321h-47.848c-7.669 0-14.105 5.731-14.947 13.32l-3.158 28.338-22.385-17.764c-5.995-4.753-14.616-4.264-20.029 1.148l-33.754 33.77c-5.403 5.412-5.865 14.009-1.063 19.96l17.613 21.817-27.939 3.085c-7.618.839-13.382 7.249-13.382 14.888v47.658c0 7.628 5.764 14.049 13.383 14.888l28.45 3.145-17.834 22.296c-4.782 5.961-4.281 14.558 1.153 19.94l33.904 33.629c5.433 5.382 14.055 5.841 20.029 1.058l21.914-17.544 3.098 27.828c.842 7.579 7.278 13.32 14.947 13.32h47.848c7.659 0 14.095-5.741 14.947-13.32l3.148-28.337 22.385 17.763c5.995 4.753 14.626 4.264 20.029-1.148l33.753-33.779c5.413-5.402 5.875-13.999 1.073-19.95l-17.613-21.817 27.929-3.085c7.619-.839 13.383-7.259 13.383-14.888v-47.658c0-7.638-5.765-14.048-13.383-14.887zm-129.58 84.034c-25.082 0-45.492-20.329-45.492-45.322 0-24.982 20.41-45.312 45.492-45.312 25.092 0 45.492 20.329 45.492 45.312 0 24.992-20.4 45.322-45.492 45.322z" fill="#4793ff"/></g></g><g><g><path d="m504.154 384.092-24.19-13.12 24.1-13.29c6.697-3.694 9.544-11.822 6.596-18.872l-18.235-43.535c-2.947-7.049-10.747-10.754-18.095-8.617l-26.927 7.848 7.689-26.87c2.095-7.339-1.684-15.077-8.772-17.973l-43.838-17.843c-7.097-2.896-15.238-.01-18.897 6.7l-13.173 24.094-13.343-24.004c-3.709-6.68-11.869-9.506-18.947-6.57l-43.708 18.153c-7.078 2.936-10.797 10.704-8.641 18.033l7.87 26.82-26.977-7.658c-7.368-2.097-15.137 1.667-18.034 8.737l-17.924 43.664c-2.907 7.059-.01 15.167 6.727 18.822l24.19 13.12-24.099 13.28c-6.707 3.704-9.544 11.822-6.596 18.872l18.225 43.544c2.957 7.039 10.747 10.744 18.105 8.607l26.927-7.848-7.689 26.88c-2.105 7.339 1.674 15.077 8.772 17.963l43.838 17.853c7.045 2.883 15.21.032 18.897-6.7l13.173-24.104 13.343 24.004c3.709 6.68 11.869 9.516 18.937 6.57l43.718-18.153c7.067-2.936 10.797-10.704 8.641-18.023l-7.88-26.82 26.987 7.658c7.368 2.087 15.137-1.677 18.035-8.737l17.924-43.664c2.895-7.068-.002-15.176-6.729-18.821zm-115.966 28.797c-22.828 9.497-49.444-1.17-59.096-24.224-9.594-22.896 1.313-49.306 24.31-58.861 22.997-9.546 49.512 1.318 59.096 24.224 9.611 22.921-1.254 49.291-24.31 58.861z" fill="#525cdd"/></g></g><path d="m413.638 94.948c-13.623-13.569-31.28-21.676-49.733-23.639l1.753-2.348c4.956-6.637 3.571-16.02-3.092-20.956-6.665-4.937-16.084-3.558-21.04 3.08l-22.555 30.206c-.022.03-.04.062-.062.092-4.377 5.956-3.749 14.213 1.495 19.436l24.656 24.558c5.872 5.85 15.393 5.85 21.265 0 5.873-5.849 5.873-15.332 0-21.181l-2.736-2.726c10.694 1.731 20.823 6.731 28.783 14.659 14.648 14.591 19.342 36.475 11.955 55.752-2.961 7.728.928 16.384 8.686 19.334 7.762 2.95 16.45-.927 19.41-8.653 11.61-30.294 4.236-64.684-18.785-87.614z" fill="#453d81"/><path d="m195.861 403.212-24.656-24.558c-5.872-5.85-15.393-5.85-21.265 0-5.873 5.849-5.873 15.332 0 21.181l2.737 2.726c-10.695-1.731-20.825-6.731-28.785-14.659-14.648-14.591-19.341-36.474-11.954-55.752 2.961-7.728-.928-16.384-8.686-19.334-7.757-2.947-16.449.924-19.41 8.653-11.609 30.295-4.235 64.685 18.786 87.614 13.624 13.571 31.287 21.667 49.742 23.628l-1.761 2.358c-4.956 6.637-3.571 16.02 3.092 20.956 6.665 4.937 16.083 3.557 21.04-3.08l22.555-30.206c4.494-6.03 3.767-14.344-1.435-19.527z" fill="#5e54ac"/></g></svg>